<?xml version="1.0" encoding="utf-8"?>
<!-- Generator: Adobe Illustrator 21.1.0, SVG Export Plug-In . SVG Version: 6.00 Build 0)  -->
<svg version="1.1" id="Capa_1" xmlns="http://www.w3.org/2000/svg" xmlns:xlink="http://www.w3.org/1999/xlink" x="0px" y="0px"
	 viewBox="0 0 348.5 348.6" style="enable-background:new 0 0 348.5 348.6;" xml:space="preserve">
<g>
	<path d="M142,229.3c25.6,0,40.8-12.3,40.8-32.8c0-22.5-18.3-40.8-40.8-40.8s-40.8,18.3-40.8,40.8
		C101.2,217.1,116.5,229.3,142,229.3z M142,165.7c17,0,30.9,13.8,30.9,30.9c0,19.9-19.3,22.9-30.9,22.9c-11.5,0-30.9-3-30.9-22.9
		C111.2,179.5,125,165.7,142,165.7z"/>
	<path d="M122.1,153.7c9.3,0,16.9-7.6,16.9-16.9c0-8.3-6.7-20.9-16.9-20.9s-16.9,12.6-16.9,20.9
		C105.2,146.1,112.8,153.7,122.1,153.7z M122.1,125.8c3,0,7,6.2,7,10.9c0,3.8-3.1,7-7,7s-7-3.1-7-7
		C115.2,132.1,119.1,125.8,122.1,125.8z"/>
	<path d="M161.9,115.9c-10.2,0-16.9,12.6-16.9,20.9c0,9.3,7.6,16.9,16.9,16.9s16.9-7.6,16.9-16.9
		C178.9,128.5,172.1,115.9,161.9,115.9z M161.9,143.8c-3.8,0-7-3.1-7-7c0-4.7,4-10.9,7-10.9c3,0,7,6.2,7,10.9
		C168.9,140.6,165.8,143.8,161.9,143.8z"/>
	<path d="M193.8,177.6c9.3,0,16.9-7.6,16.9-16.9c0-8.3-6.7-20.9-16.9-20.9c-10.2,0-16.9,12.6-16.9,20.9
		C176.9,170,184.5,177.6,193.8,177.6z M193.8,149.7c3,0,7,6.2,7,10.9c0,3.8-3.1,7-7,7c-3.8,0-7-3.1-7-7
		C186.8,156,190.8,149.7,193.8,149.7z"/>
	<path d="M90.3,139.8c-10.2,0-16.9,12.6-16.9,20.9c0,9.3,7.6,16.9,16.9,16.9s16.9-7.6,16.9-16.9C107.2,152.4,100.4,139.8,90.3,139.8
		z M90.3,167.6c-3.8,0-7-3.1-7-7c0-4.7,4-10.9,7-10.9s7,6.2,7,10.9C97.2,164.5,94.1,167.6,90.3,167.6z"/>
	<path d="M131.4,197.5h5.6v5.6c0,2.7,2.2,5,5,5c2.7,0,5-2.2,5-5v-5.6h5.6c2.7,0,5-2.2,5-5s-2.2-5-5-5H147v-5.6c0-2.7-2.2-5-5-5
		c-2.7,0-5,2.2-5,5v5.6h-5.6c-2.7,0-5,2.2-5,5S128.7,197.5,131.4,197.5z"/>
	<path d="M155.3,314.9c-37.7,0-73.1-14.7-99.7-41.3c-26.6-26.6-41.3-62-41.3-99.7S29,100.9,55.6,74.2c26.6-26.6,62-41.3,99.7-41.3
		c14.9,0,29.5,2.3,43.5,6.8c2.6,0.8,5.4-0.6,6.3-3.2c0.8-2.6-0.6-5.4-3.2-6.3c-15-4.8-30.6-7.3-46.6-7.3C115,23,77.1,38.7,48.6,67.2
		S4.4,133.6,4.4,173.9s15.7,78.2,44.2,106.7c28.5,28.5,66.4,44.2,106.7,44.2c2.7,0,5-2.2,5-5C160.3,317.2,158,314.9,155.3,314.9z"/>
	<path d="M342.9,159.4l-17.5-20c-1.8-2-5-2.3-7-0.5l-13.9,12.2c-4.8-31.6-19.7-61.1-42.5-84c-10.9-10.9-23.2-20-36.6-27
		c-2.4-1.3-5.5-0.3-6.7,2.1c-1.3,2.4-0.3,5.5,2.1,6.7c12.6,6.6,24.1,15.1,34.2,25.3c23.8,23.8,37.9,54,40.8,87.3
		c0.3,4,5.2,6,8.2,3.3l17.3-15.1l10.9,12.5l-38.7,33.9c-3.1,2.7-7.8,2.7-10.9,0l-38.7-33.9l10.9-12.5l15.9,13.9
		c3.4,2.9,8.7,0.1,8.2-4.3c-7.4-62.6-60.5-109.8-123.5-109.8c-68.6,0-124.4,55.8-124.4,124.4s55.8,124.4,124.4,124.4
		c2.7,0,5-2.2,5-5s-2.2-5-5-5c-63.1,0-114.5-51.3-114.5-114.5S92.2,59.5,155.3,59.5c53.3,0,98.9,36.7,111.2,87.3l-9-7.8
		c-2-1.8-5.2-1.6-7,0.5l-17.5,20c-1.8,2.1-1.6,5.2,0.5,7l42.5,37.2c6.8,5.9,17.2,5.9,24,0l42.5-37.2
		C344.5,164.6,344.8,161.5,342.9,159.4z"/>
	<path d="M242.5,248.3c0-17.4-14.1-31.5-31.5-31.5s-31.5,14.1-31.5,31.5c0,2.7,2.2,5,5,5c2.7,0,5-2.2,5-5c0-11.9,9.7-21.6,21.6-21.6
		c11.9,0,21.6,9.7,21.6,21.6c0,28.7-50.2,59.1-50.7,59.4c-2,1.2-2.9,3.6-2.2,5.8c0.6,2,2.6,3.5,4.7,3.5h53.1c2.7,0,5-2.2,5-5
		c0-2.7-2.2-5-5-5h-36.9C217.1,294.7,242.5,272,242.5,248.3z"/>
	<path d="M317.2,285.7h-10.9v-64c0-2-1.3-3.9-3.2-4.6c-2-0.8-4.4-0.1-5.7,1.6l-53.1,69c-2.5,3.2-0.1,8,3.9,8h48.1V312
		c0,2.7,2.2,5,5,5s5-2.2,5-5v-16.3h10.9c2.7,0,5-2.2,5-5C322.2,288,319.9,285.7,317.2,285.7z M296.3,285.7h-38l38-49.4V285.7z"/>
</g>
</svg>
