<?xml version="1.0" encoding="utf-8"?>
<!-- Generator: Adobe Illustrator 21.1.0, SVG Export Plug-In . SVG Version: 6.00 Build 0)  -->
<svg version="1.1" id="Capa_1" xmlns="http://www.w3.org/2000/svg" xmlns:xlink="http://www.w3.org/1999/xlink" x="0px" y="0px"
	 viewBox="0 0 348.5 348.6" style="enable-background:new 0 0 348.5 348.6;" xml:space="preserve">
<style type="text/css">
	.st0{fill:#FFFFFF;}
</style>
<g>
	<path class="st0" d="M339,256c-0.7-2.1-2.4-3.6-4.6-3.9l-43.5-6.1l-19.4-37.9c-1.9-3.7-8-3.7-9.9,0l-19.4,37.9l-43.5,6.1
		c-2.1,0.3-3.9,1.8-4.6,3.9c-0.7,2-0.1,4.3,1.5,5.8l31.4,29.4l-7.4,41.5c-0.4,2.1,0.5,4.2,2.2,5.5c1.7,1.3,4,1.4,5.9,0.5l38.9-19.7
		l38.9,19.7c0.8,0.4,1.7,0.6,2.5,0.6c1.2,0,2.3-0.4,3.3-1.1c1.7-1.3,2.5-3.4,2.2-5.5l-7.4-41.5l31.3-29.4
		C339,260.3,339.6,258.1,339,256L339,256z M296.2,285.2c-1.4,1.3-2,3.2-1.7,5l6,33.5L269,307.7c-0.8-0.4-1.7-0.6-2.5-0.6
		c-0.9,0-1.7,0.2-2.5,0.6l-31.5,15.9l5.9-33.5c0.4-1.9-0.3-3.8-1.7-5l-25-23.5l34.8-4.9c1.8-0.3,3.4-1.4,4.2-3l15.8-30.8l15.8,30.8
		c0.8,1.6,2.4,2.7,4.2,3l34.8,4.9L296.2,285.2z M296.2,285.2"/>
	<path class="st0" d="M210.6,188.2h50.3v-61.5H48.4v162.2h111.8v-50.3h50.3V188.2z M210.6,137.9h39.1v39.2h-39.1V137.9z
		 M160.3,137.9h39.1v39.2h-39.1V137.9z M109.9,137.9h39.2v39.2h-39.2V137.9z M149.1,227.4h-39.2v-39.1h39.2V227.4z M59.6,137.9h39.2
		v39.2H59.6V137.9z M59.6,188.2h39.2v39.1H59.6V188.2z M98.8,277.7H59.6v-39.1h39.2V277.7z M149.1,277.7h-39.2v-39.1h39.2V277.7z
		 M199.4,227.4h-39.1v-39.1h39.1V227.4z M199.4,227.4"/>
	<path class="st0" d="M154.7,316.9H20.5V98.8h268.4v95c0,3.1,2.5,5.6,5.6,5.6c3.1,0,5.6-2.5,5.6-5.6V37.2c0-3.1-2.5-5.6-5.6-5.6h-28
		V14.9c0-3.1-2.5-5.6-5.6-5.6h-39.2c-3.1,0-5.6,2.5-5.6,5.6v16.8h-123V14.9c0-3.1-2.5-5.6-5.6-5.6H48.4c-3.1,0-5.6,2.5-5.6,5.6v16.8
		h-28c-3.1,0-5.6,2.5-5.6,5.6v285.2c0,3.1,2.5,5.6,5.6,5.6h139.8c3.1,0,5.6-2.5,5.6-5.6C160.3,319.4,157.8,316.9,154.7,316.9
		L154.7,316.9z M227.4,20.5h28V54h-28V20.5z M54,20.5h28V54H54V20.5z M20.5,42.8h22.4v16.8c0,3.1,2.5,5.6,5.6,5.6h39.1
		c3.1,0,5.6-2.5,5.6-5.6V42.8h123v16.8c0,3.1,2.5,5.6,5.6,5.6h39.2c3.1,0,5.6-2.5,5.6-5.6V42.8h22.4v44.7H20.5V42.8z M20.5,42.8"/>
</g>
</svg>
