<?xml version="1.0" encoding="utf-8"?>
<!-- Generator: Adobe Illustrator 21.1.0, SVG Export Plug-In . SVG Version: 6.00 Build 0)  -->
<svg version="1.1" id="Capa_1" xmlns="http://www.w3.org/2000/svg" xmlns:xlink="http://www.w3.org/1999/xlink" x="0px" y="0px"
	 viewBox="0 0 418.6 362.8" style="enable-background:new 0 0 418.6 362.8;" xml:space="preserve">
<style type="text/css">
	.st0{fill:#FFFFFF;}
	.st1{fill:none;stroke:#FFFFFF;stroke-width:6;stroke-miterlimit:10;}
</style>
<g>
	<g>
		<path class="st0" d="M364,279.2c-1.2,1.3-2,3.1-2,4.9c0,1.8,0.7,3.5,2,4.8c1.3,1.2,3.1,2,4.8,2c1.8,0,3.6-0.8,4.9-2
			c1.2-1.3,2-3.1,2-4.8c0-1.8-0.7-3.6-2-4.9C371.2,276.8,366.6,276.7,364,279.2L364,279.2z M364,279.2"/>
		<path class="st0" d="M218.2,174.7h68.5c3.8,0,6.9-3.1,6.9-6.9c0-3.8-3.1-6.9-6.9-6.9h-68.5c-3.8,0-6.9,3.1-6.9,6.9
			C211.3,171.6,214.4,174.7,218.2,174.7L218.2,174.7z M218.2,174.7"/>
		<path class="st0" d="M225,277.4h-6.9c-3.8,0-6.9,3-6.9,6.8c0,3.8,3.1,6.8,6.9,6.8h6.9c3.8,0,6.8-3,6.8-6.8
			C231.8,280.5,228.8,277.4,225,277.4L225,277.4z M225,277.4"/>
		<path class="st0" d="M266.1,277.4h-13.7c-3.8,0-6.9,3-6.9,6.8c0,3.8,3.1,6.8,6.9,6.8h13.7c3.8,0,6.9-3,6.9-6.8
			C272.9,280.5,269.9,277.4,266.1,277.4L266.1,277.4z M266.1,277.4"/>
		<path class="st0" d="M300.3,277.4h-6.8c-3.8,0-6.9,3-6.9,6.8c0,3.8,3,6.8,6.9,6.8h6.8c3.8,0,6.9-3,6.9-6.8
			C307.2,280.5,304.1,277.4,300.3,277.4L300.3,277.4z M300.3,277.4"/>
		<path class="st0" d="M341.4,277.4h-13.7c-3.8,0-6.9,3-6.9,6.8c0,3.8,3,6.8,6.9,6.8h13.7c3.8,0,6.9-3,6.9-6.8
			C348.3,280.5,345.2,277.4,341.4,277.4L341.4,277.4z M341.4,277.4"/>
		<path class="st0" d="M368.8,202.1H218.2c-3.8,0-6.9,3-6.9,6.9c0,3.8,3.1,6.8,6.9,6.8h150.6c3.8,0,6.9-3,6.9-6.8
			C375.7,205.1,372.6,202.1,368.8,202.1L368.8,202.1z M368.8,202.1"/>
		<path class="st0" d="M368.8,243.2H218.2c-3.8,0-6.9,3-6.9,6.8c0,3.8,3.1,6.8,6.9,6.8h150.6c3.8,0,6.9-3,6.9-6.8
			C375.7,246.2,372.6,243.2,368.8,243.2L368.8,243.2z M368.8,243.2"/>
	</g>
	<path class="st0" d="M382.7,71.8H257.3V19.2c0-8.8-7.1-15.9-15.9-15.9h-64.2c-8.7,0-15.9,7.1-15.9,15.9v52.6H35.9
		c-17.7,0-32,14.4-32,32v223.6c0,17.7,14.4,32,32,32h346.9c17.7,0,32-14.4,32-32V103.9C414.8,86.2,400.4,71.8,382.7,71.8L382.7,71.8
		z M175.1,19.2c0-1.2,1-2.1,2.1-2.1h64.2c1.2,0,2.1,0.9,2.1,2.1v91.6c0,1.2-1,2.1-2.1,2.1h-64.2c-1.2,0-2.1-1-2.1-2.1V19.2z
		 M401,327.4c0,10.1-8.2,18.3-18.3,18.3H35.9c-10.1,0-18.3-8.2-18.3-18.3V103.9c0-10.1,8.2-18.3,18.3-18.3h125.5v25.2
		c0,8.7,7.1,15.8,15.9,15.8h64.2c8.7,0,15.9-7.1,15.9-15.8V85.5h125.5c10.1,0,18.3,8.2,18.3,18.3V327.4z M401,327.4"/>
	<path class="st0" d="M209.3,78.7c15.1,0,27.4-12.3,27.4-27.4c0-15.1-12.3-27.4-27.4-27.4c-15.1,0-27.4,12.3-27.4,27.4
		C181.9,66.4,194.2,78.7,209.3,78.7L209.3,78.7z M209.3,37.6c7.6,0,13.7,6.2,13.7,13.7c0,7.5-6.2,13.7-13.7,13.7
		c-7.6,0-13.7-6.2-13.7-13.7C195.6,43.7,201.7,37.6,209.3,37.6L209.3,37.6z M209.3,37.6"/>
	<g>
		<path class="st1" d="M130.8,264.2c-0.8,11.8-5.4,19.6-15.2,23.7c-6.3,2.7-12.2,0.9-17.1-3.6c-3.7-3.4-7.1-6.9-10.6-10.6
			c-3.8-4-8.2-6.1-13.9-6.1c-7.8-0.1-15.4-1.4-22.5-4.6c-6.6-3-10.5-9.9-8.9-17.8c1.7-8.6,6-15.3,13.8-19.3
			c3.7-1.9,7.9-3.2,11.9-4.5c9-3,17.9-6,26.5-10.1c3-1.4,6.5-2.5,9.8-2.6c6.2-0.2,11.2,2.6,13.8,8.3c1.6,3.6,2.6,7.6,3.2,11.6
			c1.5,9.6,3.7,19.1,7.2,28.2C129.8,259.6,130.3,262.5,130.8,264.2z"/>
		<path class="st1" d="M48,198.8c0.2-7.4,2.6-13.2,6.8-18.3c3.4-4.1,7.6-6.9,12.9-7.4c7.1-0.7,12.8,4,14.2,11.4
			c1.5,8.1-1,15.1-6,21.4c-2.2,2.9-4.9,5.1-8.3,6.5c-8.6,3.7-17.1-0.6-19.1-9.8C48.2,201.1,48.1,199.6,48,198.8z"/>
		<path class="st1" d="M170.8,233.4c-0.3,6.9-2.7,12.4-6.6,17.5c-2.5,3.2-5.5,5.5-9.3,6.8c-9,3.1-16.2-1.7-17.9-10.2
			c-1.7-8.4,1-15.6,6.2-22.1c3.3-4.1,7.6-6.9,12.9-7.4c7-0.6,12.5,3.7,14.2,11.3C170.6,230.8,170.6,232.3,170.8,233.4z"/>
		<path class="st1" d="M138.4,215.9c-9-0.1-12.8-5.2-14.2-11.7c-1.7-8.6,1-16.2,6.8-22.5c3.2-3.5,7.2-6,12.1-6.5
			c6.6-0.6,12,3.3,13.9,10.2c1.7,6.2,0.4,12-2.3,17.6c-2.1,4.4-5.1,8.1-9.5,10.3C142.7,214.6,139.9,215.4,138.4,215.9z"/>
		<path class="st1" d="M88.8,181.9c0.8-11,4.5-19.3,13.8-24.1c9.2-4.8,17.4-0.6,19.8,9.3c1,4,0.5,7.9-0.6,11.8
			c-2.3,8.4-7.5,14.3-15.6,17.2c-6.7,2.4-13.2-1.4-15.8-7.4C89.5,186.3,89.2,183.6,88.8,181.9z"/>
	</g>
</g>
</svg>
