<?xml version="1.0" encoding="utf-8"?>
<!-- Generator: Adobe Illustrator 21.1.0, SVG Export Plug-In . SVG Version: 6.00 Build 0)  -->
<svg version="1.1" id="Capa_1" xmlns="http://www.w3.org/2000/svg" xmlns:xlink="http://www.w3.org/1999/xlink" x="0px" y="0px"
	 viewBox="0 0 20.8 20.2" style="enable-background:new 0 0 20.8 20.2;" xml:space="preserve">
<style type="text/css">
	.st0{fill:#201913;}
</style>
<g>
	<path class="st0" d="M2.7,17.5c0-3,0-6.1,0-9.1c0,0,0.1,0,0.1-0.1c0.3-0.2,0.6-0.5,0.9-0.7c0.9-0.7,1.7-1.3,2.6-2
		c0.8-0.6,1.5-1.1,2.3-1.7c0.5-0.4,1.1-0.8,1.6-1.2c0.1,0,0.1-0.1,0.2,0c0.2,0.2,0.5,0.4,0.7,0.5c0.7,0.6,1.5,1.1,2.2,1.7
		c0.7,0.5,1.4,1,2.1,1.5c0.8,0.6,1.6,1.2,2.5,1.8c0.1,0.1,0.1,0.1,0.1,0.2c0,2.9,0,5.9,0,8.8c0,0,0,0.1,0,0.1c-0.1,0-0.1,0-0.2,0
		c-5,0-10,0-15,0C2.9,17.5,2.8,17.5,2.7,17.5z M17.1,17C17.1,17,17,17,17.1,17c-0.6-0.4-1.1-0.8-1.5-1.2c-0.6-0.5-1.2-0.9-1.8-1.4
		c-0.6-0.4-1.1-0.9-1.7-1.3c-0.5-0.4-1.1-0.8-1.6-1.2c-0.1,0-0.1,0-0.1,0c-0.1,0.1-0.2,0.2-0.3,0.3c-0.8,0.6-1.6,1.2-2.3,1.8
		c-0.7,0.5-1.3,1-2,1.5c-0.5,0.4-1,0.8-1.5,1.2C4,16.8,3.9,16.9,3.7,17C8.2,17,12.6,17,17.1,17z M3.3,16.7c1.9-1.5,3.8-2.9,5.7-4.4
		c-1.9-1.3-3.8-2.5-5.7-3.8C3.3,11.3,3.3,14,3.3,16.7z M17.5,8.6c-1.9,1.3-3.8,2.5-5.7,3.8c1.9,1.5,3.8,2.9,5.7,4.4
		C17.5,14,17.5,11.3,17.5,8.6z M12.9,9.3c-0.2,0-0.3,0-0.5,0c0,0-0.1,0-0.1,0.1c-0.2,0.2-0.5,0.4-0.7,0.5c-0.6,0.2-1.2,0.2-1.8,0
		C9.2,9.7,8.8,9.4,8.6,8.9C8.4,8.5,8.4,8.1,8.5,7.7C8.6,7,8.9,6.4,9.6,6.1C10.1,6,10.5,5.9,11,6c0.7,0.1,1.2,0.6,1.2,1.3
		c0,0.6-0.2,1-0.7,1.4c-0.1,0-0.2,0-0.2,0c0-0.1,0-0.2,0-0.2c0.1-0.5,0.2-1,0.3-1.4c0-0.2,0.1-0.3,0.1-0.5c-0.2,0-0.3,0-0.4,0
		c-0.2,0-0.2,0-0.3,0.2c0,0,0,0,0,0c0-0.1-0.1-0.1-0.1-0.2c-0.3-0.2-0.9-0.2-1.2,0.1c-0.5,0.4-0.7,1-0.7,1.6c0,0.6,0.5,1,1.1,0.9
		c0.2,0,0.4-0.1,0.5-0.3c0.1,0.2,0.2,0.2,0.3,0.3c0.3,0,0.5,0,0.7-0.1c0.9-0.4,1.3-1.4,1-2.4c-0.2-0.7-0.8-1.1-1.5-1.3
		c-0.5-0.1-0.9-0.1-1.4,0.1C9.1,5.8,8.6,6.2,8.3,6.7C7.9,7.4,7.9,8.2,8.1,8.9c0.2,0.6,0.6,1,1.1,1.2c0.5,0.2,1.1,0.3,1.7,0.2
		c0.5,0,1-0.2,1.4-0.5C12.6,9.7,12.7,9.5,12.9,9.3z"/>
	<path class="st0" d="M9.6,8.2c0-0.3,0.1-0.6,0.3-0.9c0.1-0.1,0.1-0.1,0.2-0.2c0.2-0.1,0.3-0.1,0.5,0c0.2,0.1,0.3,0.3,0.3,0.5
		c0,0.3-0.1,0.7-0.3,0.9C10.4,8.8,10,8.9,9.8,8.7C9.6,8.6,9.6,8.4,9.6,8.2z"/>
</g>
</svg>
