<?xml version="1.0" encoding="utf-8"?>
<!-- Generator: Adobe Illustrator 21.1.0, SVG Export Plug-In . SVG Version: 6.00 Build 0)  -->
<svg version="1.1" id="Capa_1" xmlns="http://www.w3.org/2000/svg" xmlns:xlink="http://www.w3.org/1999/xlink" x="0px" y="0px"
	 viewBox="0 0 348.5 291" style="enable-background:new 0 0 348.5 291;" xml:space="preserve">
<style type="text/css">
	.st0{fill:#FFFFFF;}
</style>
<path class="st0" d="M336.1,46.4h-44.5V13.9c0-2.7-2.2-4.9-4.9-4.9H36.6C20.3,9,7,22.3,7,38.6v203.4c0,16.3,13.3,29.5,29.6,29.6
	h274.9c16.3,0,29.5-13.3,29.6-29.6V51.3C341,48.6,338.9,46.4,336.1,46.4C336.1,46.4,336.1,46.4,336.1,46.4z M36.6,261.8
	c-10.9,0-19.8-8.9-19.8-19.8V38.8c0-10.9,8.9-19.8,19.8-19.8h245.2v223c0,7.3,2.8,14.4,7.7,19.8L36.6,261.8z M331,241.9
	c0,10.8-8.7,19.7-19.5,19.9c-10.8,0.2-19.6-8.4-19.8-19.2c0-0.2,0-0.4,0-0.7V56.2H331V241.9z"/>
<path class="st0" d="M243.8,99.6H47.3c-2.7,0-4.9,2.2-4.9,4.9c0,2.7,2.2,4.9,4.9,4.9h196.5c2.7,0,4.9-2.2,4.9-4.9
	C248.7,101.7,246.5,99.6,243.8,99.6z"/>
<path class="st0" d="M222.1,139.1H47.3c-2.7,0-4.9,2.2-4.9,4.9c0,2.7,2.2,4.9,4.9,4.9h174.8c2.7,0,4.9-2.2,4.9-4.9
	C226.9,141.3,224.8,139.1,222.1,139.1z"/>
<path class="st0" d="M222.1,164.3H47.3c-2.7,0-4.9,2.2-4.9,4.9s2.2,4.9,4.9,4.9h174.8c2.7,0,4.9-2.2,4.9-4.9
	S224.8,164.3,222.1,164.3z"/>
<path class="st0" d="M222.1,189.5H47.3c-2.7,0-4.9,2.2-4.9,4.9s2.2,4.9,4.9,4.9h174.8c2.7,0,4.9-2.2,4.9-4.9
	S224.8,189.5,222.1,189.5z"/>
<path class="st0" d="M222.1,214.7H47.3c-2.7,0-4.9,2.2-4.9,4.9s2.2,4.9,4.9,4.9h174.8c2.7,0,4.9-2.2,4.9-4.9
	S224.8,214.7,222.1,214.7z"/>
<g>
	<path class="st0" d="M66.9,87.4V40.8h20.5c4.7,0,8.4,1.4,11.2,4.2c2.7,2.8,4.1,6.3,4.1,10.4c0,4.1-1.4,7.6-4.1,10.4
		c-2.7,2.8-6.5,4.2-11.1,4.2H75.1v17.4H66.9z M75.1,62.8h11.2c2.3,0,4.2-0.7,5.7-2c1.5-1.4,2.2-3.1,2.2-5.4c0-2.2-0.7-4-2.2-5.4
		c-1.5-1.4-3.4-2-5.7-2H75.1V62.8z"/>
	<path class="st0" d="M109.4,87.4V40.8h31.9V48h-23.7v12.1h23.3v7.2h-23.3v12.9h23.7v7.2H109.4z"/>
	<path class="st0" d="M146.7,48v-7.2h36.4V48H169v39.4h-8.2V48H146.7z"/>
	<path class="st0" d="M186.6,80.9l4.5-6.3c1.8,1.9,3.9,3.4,6.4,4.7c2.5,1.2,5.3,1.8,8.3,1.8c3.1,0,5.5-0.6,7-1.9
		c1.6-1.3,2.3-2.8,2.3-4.5c0-1.1-0.3-2-0.9-2.7c-0.6-0.8-1.5-1.4-2.5-1.9s-2.2-0.9-3.6-1.3c-1.4-0.4-2.8-0.8-4.3-1.2
		c-1.5-0.4-3-0.8-4.5-1.2c-1.5-0.4-3-1-4.3-1.7c-1.4-0.7-2.6-1.5-3.6-2.4c-1-0.9-1.9-2.1-2.5-3.5c-0.6-1.4-0.9-3.1-0.9-4.9
		c0-3.9,1.6-7.1,4.7-9.7c3.1-2.6,7.2-3.9,12.3-3.9c7.2,0,13.1,2.1,17.5,6.4l-4.7,6.1c-1.8-1.8-3.8-3.1-6.2-4
		c-2.4-0.9-4.8-1.4-7.3-1.4c-2.4,0-4.3,0.5-5.7,1.6c-1.4,1.1-2.2,2.5-2.2,4.2c0,0.9,0.3,1.7,0.9,2.4c0.6,0.7,1.4,1.3,2.5,1.7
		c1,0.4,2.2,0.9,3.6,1.2c1.4,0.4,2.8,0.8,4.3,1.2c1.5,0.4,3,0.8,4.5,1.3c1.5,0.4,2.9,1,4.3,1.7c1.4,0.7,2.6,1.6,3.6,2.5
		c1.1,1,1.9,2.2,2.5,3.6c0.6,1.5,0.9,3.1,0.9,5c0,2-0.4,3.8-1.1,5.5c-0.7,1.7-1.8,3.2-3.2,4.6c-1.4,1.3-3.3,2.4-5.7,3.1
		c-2.4,0.8-5.1,1.1-8.1,1.1C197.6,88.2,191.2,85.8,186.6,80.9z"/>
</g>
</svg>
