<?xml version="1.0" encoding="utf-8"?>
<!-- Generator: Adobe Illustrator 21.1.0, SVG Export Plug-In . SVG Version: 6.00 Build 0)  -->
<svg version="1.1" id="Capa_1" xmlns="http://www.w3.org/2000/svg" xmlns:xlink="http://www.w3.org/1999/xlink" x="0px" y="0px"
	 viewBox="0 0 20.8 20.2" style="enable-background:new 0 0 20.8 20.2;" xml:space="preserve">
<style type="text/css">
	.st0{fill:#201913;}
</style>
<path class="st0" d="M15.3,8.1h-0.2V5.3c0-1.2-1.1-2.2-2.5-2.2H8.3c-1.4,0-2.5,1-2.5,2.2v2.8H5.5C5.1,8.1,4.7,8.5,4.7,9v7.2
	c0,0.5,0.4,0.9,0.9,0.9h9.8c0.5,0,0.9-0.4,0.9-0.9V9C16.2,8.5,15.8,8.1,15.3,8.1z M7.2,6.1C7.2,5.3,8,4.6,9,4.6h2.9
	c1,0,1.8,0.7,1.8,1.5v1.9H7.2V6.1z M11.6,12l-0.3,2.4c0,0.5-0.4,0.9-0.9,0.9c-0.5,0-0.9-0.4-0.9-0.9L9.2,12h0c0-0.1,0-0.1,0-0.2
	c0-0.7,0.6-1.2,1.2-1.2c0.7,0,1.2,0.6,1.2,1.2C11.7,11.9,11.6,11.9,11.6,12L11.6,12z"/>
</svg>
